HIERARCHY
ROOT Hips
{
	OFFSET 0.000000 0.000000 0.000000 
	CHANNELS 6 Xposition Yposition Zposition Zrotation Yrotation Xrotation
	JOINT LeftUpLeg
	{
		OFFSET 1.363060 -1.794630 0.839290 
		CHANNELS 3 Zrotation Yrotation Xrotation
		JOINT LeftLeg
		{
			OFFSET 2.448110 -6.726130 0.000000 
			CHANNELS 3 Zrotation Yrotation Xrotation
			JOINT LeftFoot
			{
				OFFSET 2.562200 -7.039590 0.000000 
				CHANNELS 3 Zrotation Yrotation Xrotation
				JOINT LeftToeBase
				{
					OFFSET 0.157640 -0.433110 2.322550 
					CHANNELS 3 Zrotation Yrotation Xrotation
					End Site
					{
						OFFSET 0.000000 0.000000 0.000000 
					}
				}
			}
		}
	}
	JOINT RightUpLeg
	{
		OFFSET -1.305520 -1.794630 0.839290 
		CHANNELS 3 Zrotation Yrotation Xrotation
		JOINT RightLeg
		{
			OFFSET -2.542530 -6.985550 0.000000 
			CHANNELS 3 Zrotation Yrotation Xrotation
			JOINT RightFoot
			{
				OFFSET -2.568260 -7.056230 0.000000 
				CHANNELS 3 Zrotation Yrotation Xrotation
				JOINT RightToeBase
				{
					OFFSET -0.164730 -0.452590 2.363150 
					CHANNELS 3 Zrotation Yrotation Xrotation
					End Site
					{
						OFFSET 0.000000 0.000000 0.000000 
					}
				}
			}
		}
	}
	JOINT Spine
	{
		OFFSET 0.028270 2.035590 -0.193380 
		CHANNELS 3 Zrotation Yrotation Xrotation
		JOINT Spine1
		{
			OFFSET 0.056720 2.048850 -0.042750 
			CHANNELS 3 Zrotation Yrotation Xrotation
			JOINT Neck1
			{
				OFFSET -0.054170 1.746240 0.172020 
				CHANNELS 3 Zrotation Yrotation Xrotation
				JOINT Head
				{
					OFFSET 0.104070 1.761360 -0.123970 
					CHANNELS 3 Zrotation Yrotation Xrotation
					End Site
					{
						OFFSET 0.000000 0.000000 0.000000 
					}
				}
			}
			JOINT LeftArm
			{
				OFFSET 3.362410 1.200890 -0.311210 
				CHANNELS 3 Zrotation Yrotation Xrotation
				JOINT LeftForeArm
				{
					OFFSET 4.983000 -0.000000 -0.000000 
					CHANNELS 3 Zrotation Yrotation Xrotation
					JOINT LeftHand
					{
						OFFSET 3.483560 -0.000000 -0.000000 
						CHANNELS 3 Zrotation Yrotation Xrotation
						JOINT LeftHandIndex1
						{
							OFFSET 0.715260 -0.000000 -0.000000 
							CHANNELS 3 Zrotation Yrotation Xrotation
							End Site
							{
								OFFSET 0.000000 0.000000 0.000000 
							}
						}
					}
				}
			}
			JOINT RightArm
			{
				OFFSET -3.136600 1.374050 -0.404650 
				CHANNELS 3 Zrotation Yrotation Xrotation
				JOINT RightForeArm
				{
					OFFSET -5.241900 -0.000000 -0.000000 
					CHANNELS 3 Zrotation Yrotation Xrotation
					JOINT RightHand
					{
						OFFSET -3.444170 -0.000000 -0.000000 
						CHANNELS 3 Zrotation Yrotation Xrotation
						JOINT RightHandIndex1
						{
							OFFSET -0.622530 -0.000000 -0.000000 
							CHANNELS 3 Zrotation Yrotation Xrotation
							End Site
							{
								OFFSET 0.000000 0.000000 0.000000 
							}
						}
					}
				}
			}
		}
	}
}
MOTION
Frames: 6
Frame Time: 0.041667
9.314576 17.648948 -11.872278 -8.154839 17.388815 2.040267 -7.759760 -0.201321 -9.693236 1.067982 10.287430 28.655742 -0.473209 5.107570 -11.146931 0.171400 -2.666800 -7.352500 24.254754 2.948139 -14.326257 -1.666464 -10.466193 28.619402 0.789978 -6.468222 -9.534619 -0.013700 0.755400 -2.075900 1.049055 0.598656 -3.062763 1.423472 0.649776 0.027154 7.190676 -8.280880 8.035450 4.698700 -4.183500 6.885300 -80.554892 3.793515 23.399980 12.433938 -25.843543 -3.231255 0.870596 -1.836725 9.251755 -7.125000 0.000000 0.000000 85.893591 0.392710 17.981799 -13.879146 23.832663 -3.132426 -0.021012 -0.409079 -6.273730 7.125000 0.000000 0.000000 
9.316610 17.656881 -11.860989 -7.503302 17.690350 2.078374 -8.380744 -0.093487 -9.358685 0.973032 10.153406 28.216080 -0.439120 4.947313 -10.878174 0.185000 -2.770400 -7.640300 23.486950 2.771014 -14.362745 -1.730547 -10.584540 28.981611 0.737980 -6.278994 -9.799040 -0.001900 0.281200 -0.772600 0.978687 0.445632 -3.066197 1.421968 0.565703 -0.121727 7.367013 -8.447774 7.793858 4.758700 -4.248900 6.725400 -80.421986 3.844368 23.126267 12.410916 -25.789149 -3.187035 0.890275 -1.855175 9.534629 -7.125000 0.000000 0.000000 86.144585 0.328298 17.898261 -13.882161 23.822033 -3.136623 -0.014059 -0.420998 -6.194822 7.125000 0.000000 0.000000 
9.312949 17.649152 -11.856921 -7.042469 17.865321 2.095052 -8.814992 0.001167 -9.309679 0.994760 10.205850 28.363129 -0.364131 4.720205 -10.978283 0.209400 -2.946500 -8.129900 23.037610 2.504866 -14.230818 -1.721699 -10.567455 28.925428 0.774192 -6.448405 -9.868592 -0.006900 0.537000 -1.475700 0.931430 0.333813 -3.046652 1.479842 0.504137 -0.156634 7.507256 -8.406715 7.611938 4.845900 -4.220700 6.591300 -80.287963 3.869133 23.012752 12.513146 -25.957035 -3.254293 0.886470 -1.850906 9.540429 -7.125000 0.000000 0.000000 86.344395 0.363159 17.872357 -13.952462 23.913747 -3.160388 -0.019095 -0.417204 -6.190683 7.125000 0.000000 0.000000 
9.308474 17.641524 -11.858040 -7.371121 17.672859 2.027741 -8.473427 0.039504 -9.419917 1.013282 10.218136 28.416836 -0.392751 4.816416 -10.984606 0.192400 -2.824800 -7.791300 23.474913 2.796619 -14.117578 -1.710131 -10.548869 28.866821 0.847294 -6.776040 -9.877990 -0.018100 0.869100 -2.388800 0.963231 0.453393 -3.059854 1.456490 0.564885 -0.064904 6.976345 -8.073587 8.221305 4.490500 -4.073400 7.006200 -80.390121 3.758337 22.799168 12.591445 -26.058487 -3.304115 0.886149 -1.842914 9.932371 -7.125000 0.000000 0.000000 86.325258 0.362617 18.070713 -14.062121 24.029592 -3.196801 -0.010598 -0.419485 -6.552796 7.125000 0.000000 0.000000 
9.304812 17.642846 -11.858955 -8.212051 17.390763 1.873412 -7.628738 0.126185 -9.662539 1.065139 10.255397 28.567466 -0.447823 4.994756 -10.963138 0.201900 -2.893000 -7.981000 24.439586 3.364789 -13.997530 -1.682893 -10.500513 28.720833 0.908303 -7.034788 -9.769133 -0.016800 0.836200 -2.298300 1.041321 0.610924 -3.074248 1.376568 0.649127 -0.031432 6.761010 -7.801363 8.401639 4.355700 -3.943500 7.153700 -80.555566 3.680342 22.525527 12.658278 -26.119322 -3.316930 0.904984 -1.848672 10.435462 -7.125000 0.000000 0.000000 86.269067 0.390025 18.325506 -14.163421 24.136851 -3.235076 0.008240 -0.429073 -6.992173 7.125000 0.000000 0.000000 
9.310914 17.646507 -11.856412 -8.347106 17.533077 1.805662 -7.506027 0.183731 -9.732804 1.115135 10.321481 28.782012 -0.381322 4.784779 -10.979717 0.215900 -2.991600 -8.255500 24.563446 3.310236 -13.891351 -1.647816 -10.436746 28.521997 0.929218 -7.118500 -9.715303 -0.019400 0.898200 -2.468700 1.045937 0.583051 -3.066180 1.292204 0.637185 -0.025159 6.903213 -7.705244 8.246054 4.464600 -3.887400 7.069400 -80.401174 3.729736 22.864452 12.625646 -26.091130 -3.318561 0.902748 -1.839812 9.814457 -7.125000 0.000000 0.000000 86.269563 0.386726 18.588751 -14.178988 24.196671 -3.217259 -0.038425 -0.365309 -7.193452 7.125000 0.000000 0.000000 
